<svg width="67" height="87" viewBox="0 0 67 87" fill="none" xmlns="http://www.w3.org/2000/svg">
<mask id="path-1-inside-1_985_236" fill="white">
<path d="M0.74 0.311999H66.616V32.648H46.492V20.092H20.52L20.864 67.048H46.492V55.524H66.616V87H0.74V0.311999Z"/>
</mask>
<path d="M0.74 0.311999H66.616V32.648H46.492V20.092H20.52L20.864 67.048H46.492V55.524H66.616V87H0.74V0.311999Z" fill="#0C0348"/>
<path d="M0.74 0.311996V-0.188004H0.24V0.311996H0.74ZM66.616 0.311996H67.116V-0.188004H66.616V0.311996ZM66.616 32.648V33.148H67.116V32.648H66.616ZM46.492 32.648H45.992V33.148H46.492V32.648ZM46.492 20.092H46.992V19.592H46.492V20.092ZM20.52 20.092V19.592H20.0163L20.02 20.0957L20.52 20.092ZM20.864 67.048L20.364 67.0517L20.3676 67.548H20.864V67.048ZM46.492 67.048V67.548H46.992V67.048H46.492ZM46.492 55.524V55.024H45.992V55.524H46.492ZM66.616 55.524H67.116V55.024H66.616V55.524ZM66.616 87V87.5H67.116V87H66.616ZM0.74 87H0.24V87.5H0.74V87ZM0.74 0.811996H66.616V-0.188004H0.74V0.811996ZM66.116 0.311996V32.648H67.116V0.311996H66.116ZM66.616 32.148H46.492V33.148H66.616V32.148ZM46.992 32.648V20.092H45.992V32.648H46.992ZM46.492 19.592H20.52V20.592H46.492V19.592ZM20.02 20.0957L20.364 67.0517L21.364 67.0443L21.02 20.0883L20.02 20.0957ZM20.864 67.548H46.492V66.548H20.864V67.548ZM46.992 67.048V55.524H45.992V67.048H46.992ZM46.492 56.024H66.616V55.024H46.492V56.024ZM66.116 55.524V87H67.116V55.524H66.116ZM66.616 86.5H0.74V87.5H66.616V86.5ZM1.24 87V0.311996H0.24V87H1.24Z" fill="#ECECEC" mask="url(#path-1-inside-1_985_236)"/>
</svg>
