<?xml version="1.0" encoding="utf-8"?>
<!-- Generator: Adobe Illustrator 24.1.1, SVG Export Plug-In . SVG Version: 6.00 Build 0)  -->
<svg version="1.1" id="Layer_1" xmlns="http://www.w3.org/2000/svg" xmlns:xlink="http://www.w3.org/1999/xlink" x="0px" y="0px"
	 viewBox="0 0 512 512" style="enable-background:new 0 0 512 512;" xml:space="preserve">
<g>
	<path d="M436.2,436.3h-75.7V317.5c0-28.3-0.6-64.7-39.6-64.7c-39.5,0-45.5,30.7-45.5,62.7v120.9h-75.8V192h72.8v33.3h1
		c10.2-19.2,34.9-39.5,71.9-39.5c76.8,0,91.1,50.6,91.1,116.3L436.2,436.3L436.2,436.3z M113.8,158.6c-24.4,0-44-19.8-44-44.1
		c0-24.2,19.7-44,44-44c24.4,0,44.1,19.7,44.1,44C157.9,138.8,138.2,158.6,113.8,158.6z M151.8,436.3h-76V192h76V436.3z M474.2,0
		H37.8C16.9,0,0,16.5,0,36.9v438.2C0,495.5,16.9,512,37.8,512h436.3c20.8,0,37.9-16.5,37.9-36.9V36.9C512,16.5,494.9,0,474.2,0
		L474.2,0z"/>
</g>
</svg>
