<svg width="176" height="116" viewBox="0 0 176 116" fill="none" xmlns="http://www.w3.org/2000/svg">
<path d="M98.7374 115.878H164.164C166.242 115.878 168.283 115.348 170.083 114.338C171.872 113.34 173.366 111.888 174.416 110.128C175.452 108.389 176 106.402 176 104.378C176 102.359 175.451 100.377 174.411 98.6286L130.472 24.7006C129.422 22.9414 127.928 21.4899 126.14 20.4918C124.332 19.4793 122.294 18.9487 120.222 18.9509C118.144 18.9509 116.104 19.4825 114.304 20.4918C112.516 21.4898 111.022 22.9413 109.973 24.7006L98.7374 43.6159L76.7717 6.62673C75.72 4.86815 74.2255 3.41704 72.4377 2.4186C70.6284 1.40721 68.5905 0.876953 66.5184 0.878421C64.4407 0.878421 62.3989 1.40995 60.599 2.4186C58.8115 3.41713 57.3173 4.86824 56.2657 6.62673L1.58812 98.6286C0.550597 100.366 0.00183727 102.353 0 104.378C0 106.396 0.545187 108.38 1.584 110.128C2.63409 111.888 4.12839 113.34 5.91662 114.338C7.7255 115.351 9.76373 115.881 11.836 115.878H52.9052C69.1776 115.878 81.1773 108.936 89.4348 95.3899L109.482 61.665L120.219 43.6159L152.445 97.83H109.482L98.7374 115.878ZM52.2349 97.8121L23.5744 97.8052L66.5376 25.5241L87.9746 61.665L73.6216 85.8204C68.1381 94.6092 61.9087 97.8114 52.2356 97.8114" fill="#00DC82"/>
</svg>
