<svg width="256" height="263" viewBox="0 0 256 263" fill="none" xmlns="http://www.w3.org/2000/svg">
<g clip-path="url(#clip0_273_12)">
<path d="M149.602 258.579C142.884 267.039 129.264 262.403 129.102 251.602L126.735 93.6182H232.964C252.204 93.6182 262.935 115.841 250.971 130.91L149.602 258.579Z" fill="url(#paint0_linear_273_12)"/>
<path d="M149.602 258.579C142.884 267.039 129.264 262.403 129.102 251.602L126.735 93.6182H232.964C252.204 93.6182 262.935 115.841 250.971 130.91L149.602 258.579Z" fill="url(#paint1_linear_273_12)" fill-opacity="0.2"/>
<path d="M106.399 4.36978C113.116 -4.09122 126.737 0.543782 126.899 11.3458L127.936 169.33H23.0371C3.79613 169.33 -6.93587 147.107 5.02913 132.038L106.399 4.36978Z" fill="#3ECF8E"/>
</g>
<defs>
<linearGradient id="paint0_linear_273_12" x1="2823.46" y1="3596.54" x2="8914.71" y2="6151.19" gradientUnits="userSpaceOnUse">
<stop stop-color="#249361"/>
<stop offset="1" stop-color="#3ECF8E"/>
</linearGradient>
<linearGradient id="paint1_linear_273_12" x1="384.101" y1="-2134.42" x2="4294.51" y2="5226.38" gradientUnits="userSpaceOnUse">
<stop/>
<stop offset="1" stop-opacity="0"/>
</linearGradient>
<clipPath id="clip0_273_12">
<rect width="256" height="263" fill="white"/>
</clipPath>
</defs>
</svg>
