<svg width="22" height="22" viewBox="0 0 22 22" fill="none" xmlns="http://www.w3.org/2000/svg">
<path d="M0.00748565 0.304552C-0.038319 0.121246 0.133642 -0.0424369 0.317204 0.00988741L5.6651 1.53171C5.7131 1.5316 5.76013 1.545 5.80071 1.57036L16.3478 4.5717C16.3915 4.57255 16.4346 4.58487 16.4721 4.60704L21.8203 6.12903C22.0041 6.18136 22.0615 6.4107 21.9237 6.54168L5.78463 21.8864C5.64688 22.0174 5.41734 21.9518 5.37153 21.7683L2.69441 11.0561C2.69082 11.0451 2.688 11.0339 2.68599 11.0225L0.00748565 0.304552ZM4.58847 16.5888L5.75035 21.2379L9.24921 17.9112L4.58847 16.5888ZM8.19252 12.9122L4.80495 16.1395L9.3177 17.4201L8.19252 12.9122ZM8.69534 12.8777L9.81699 17.3714L13.1953 14.1594L8.69534 12.8777ZM3.27526 11.3339L4.40181 15.8421L7.78535 12.6185L3.27526 11.3339ZM12.1873 9.10183L8.74544 12.3811L13.3322 13.6875L12.1873 9.10183ZM12.6696 8.98521L13.8145 13.5707L17.2658 10.2893L12.6696 8.98521ZM6.86186 7.58018L3.41259 10.8623L8.00775 12.171L6.86186 7.58018ZM7.34225 7.45642L8.46752 11.9643L11.8551 8.73684L7.34225 7.45642ZM1.92372 5.92551L3.06884 10.5082L6.51562 7.22844L1.92372 5.92551ZM16.2058 5.28929L12.8183 8.51667L17.331 9.79725L16.2058 5.28929ZM16.6899 5.17972L17.8312 9.75181L21.2694 6.4829L16.6899 5.17972ZM10.8582 3.77766L7.48594 6.98652L11.9775 8.26091L10.8582 3.77766ZM11.3396 3.65713L12.4664 8.17044L15.8549 4.94205L11.3396 3.65713ZM5.52906 2.2493L2.14149 5.47676L6.65424 6.75718L5.52906 2.2493ZM6.01357 2.14151L7.136 6.63809L10.5153 3.42261L6.01357 2.14151ZM0.592462 0.598876L1.73741 5.18023L5.1768 1.90342L0.592462 0.598876Z" fill="white"/>
</svg>
